<?xml version="1.0" standalone="no"?>
<!DOCTYPE svg PUBLIC "-//W3C//DTD SVG 20010904//EN"
 "http://www.w3.org/TR/2001/REC-SVG-20010904/DTD/svg10.dtd">
<svg version="1.0" xmlns="http://www.w3.org/2000/svg"
 width="300.000000pt" height="240.000000pt" viewBox="0 0 300.000000 240.000000"
 preserveAspectRatio="xMidYMid meet">
<metadata>
Created by potrace 1.10, written by Peter Selinger 2001-2011
</metadata>
<g transform="translate(0.000000,240.000000) scale(0.100000,-0.100000)"
fill="#000000" stroke="none">
<path d="M360 2212 l0 -182 -182 0 c-100 0 -179 -2 -176 -5 3 -3 85 -6 182 -6
l176 0 0 -179 0 -179 -176 0 c-97 0 -179 -3 -182 -6 -3 -3 239 -5 538 -5 299
0 541 2 538 5 -3 4 -164 6 -357 6 l-351 -1 0 180 0 181 185 -3 c102 -2 185 0
185 5 0 4 -83 7 -185 7 l-184 0 0 176 c0 97 -3 179 -6 182 -3 3 -5 -76 -5
-176z"/>
<path d="M2920 1210 c0 -651 2 -1181 6 -1178 3 3 5 204 5 446 l-1 441 38 4 37
4 -37 1 -37 2 0 359 0 360 37 4 37 4 -37 1 -38 2 0 179 0 180 38 4 37 4 -37 1
-37 2 0 176 c0 97 -3 179 -6 182 -3 3 -5 -527 -5 -1178z"/>
<path d="M913 2305 c0 -38 2 -53 4 -32 2 20 2 52 0 70 -2 17 -4 1 -4 -38z"/>
<path d="M1093 2300 c0 -41 2 -58 4 -37 2 20 2 54 0 75 -2 20 -4 3 -4 -38z"/>
<path d="M1462 2290 c-2 -47 -3 -124 -2 -172 l1 -88 -180 0 -180 0 -4 78 c-1
42 -3 3 -3 -88 0 -91 2 -128 3 -82 l4 82 179 0 180 0 0 -180 0 -181 -185 3
c-102 2 -185 0 -185 -4 0 -5 83 -8 185 -8 l184 0 4 -97 3 -98 2 98 2 97 722 0
c397 0 719 2 716 5 -3 3 -163 6 -357 5 l-351 0 0 180 0 181 185 -3 c102 -2
185 0 185 5 0 4 -83 7 -185 7 l-185 0 1 166 c0 92 -3 169 -6 172 -5 5 -7 -95
-5 -250 l1 -88 -270 0 -271 0 1 166 c0 92 -3 169 -6 172 -3 3 -5 -75 -5 -174
l0 -179 275 2 275 3 0 -180 0 -180 -270 0 -269 0 -4 83 -3 82 -2 -82 -2 -83
-85 0 -85 0 0 180 0 179 83 4 82 3 -82 2 -83 2 -3 173 c-1 94 -4 134 -5 87z"/>
<path d="M183 2300 c0 -36 2 -50 4 -32 2 17 2 47 0 65 -2 17 -4 3 -4 -33z"/>
<path d="M237 2203 c18 -2 50 -2 70 0 21 2 7 4 -32 4 -38 0 -55 -2 -38 -4z"/>
<path d="M417 2203 c18 -2 50 -2 70 0 21 2 7 4 -32 4 -38 0 -55 -2 -38 -4z"/>
<path d="M608 2203 c17 -2 47 -2 65 0 17 2 3 4 -33 4 -36 0 -50 -2 -32 -4z"/>
<path d="M788 2203 c18 -2 45 -2 60 0 15 2 0 4 -33 4 -33 0 -45 -2 -27 -4z"/>
<path d="M967 2203 c18 -2 50 -2 70 0 21 2 7 4 -32 4 -38 0 -55 -2 -38 -4z"/>
<path d="M1147 2203 c18 -2 50 -2 70 0 21 2 7 4 -32 4 -38 0 -55 -2 -38 -4z"/>
<path d="M1337 2203 c18 -2 50 -2 70 0 21 2 7 4 -32 4 -38 0 -55 -2 -38 -4z"/>
<path d="M1517 2203 c18 -2 50 -2 70 0 21 2 7 4 -32 4 -38 0 -55 -2 -38 -4z"/>
<path d="M1697 2203 c18 -2 50 -2 70 0 21 2 7 4 -32 4 -38 0 -55 -2 -38 -4z"/>
<path d="M1888 2203 c17 -2 47 -2 65 0 17 2 3 4 -33 4 -36 0 -50 -2 -32 -4z"/>
<path d="M2067 2203 c18 -2 50 -2 70 0 21 2 7 4 -32 4 -38 0 -55 -2 -38 -4z"/>
<path d="M2247 2203 c18 -2 50 -2 70 0 21 2 7 4 -32 4 -38 0 -55 -2 -38 -4z"/>
<path d="M2438 2203 c17 -2 47 -2 65 0 17 2 3 4 -33 4 -36 0 -50 -2 -32 -4z"/>
<path d="M2617 2203 c18 -2 50 -2 70 0 21 2 7 4 -32 4 -38 0 -55 -2 -38 -4z"/>
<path d="M2797 2203 c18 -2 50 -2 70 0 21 2 7 4 -32 4 -38 0 -55 -2 -38 -4z"/>
<path d="M183 2115 c0 -38 2 -53 4 -32 2 20 2 52 0 70 -2 17 -4 1 -4 -38z"/>
<path d="M913 2115 c0 -38 2 -53 4 -32 2 20 2 52 0 70 -2 17 -4 1 -4 -38z"/>
<path d="M2743 2115 c0 -38 2 -53 4 -32 2 20 2 52 0 70 -2 17 -4 1 -4 -38z"/>
<path d="M733 2105 c0 -33 2 -45 4 -27 2 18 2 45 0 60 -2 15 -4 0 -4 -33z"/>
<path d="M2660 2030 l-85 -5 85 -5 c47 -3 123 -3 170 0 l85 5 -85 5 c-47 3
-123 3 -170 0z"/>
<path d="M752 2025 c3 -3 76 -6 163 -6 87 0 160 3 163 6 3 3 -70 5 -163 5 -93
0 -166 -2 -163 -5z"/>
<path d="M733 1935 c0 -38 2 -53 4 -32 2 20 2 52 0 70 -2 17 -4 1 -4 -38z"/>
<path d="M913 1935 c0 -38 2 -53 4 -32 2 20 2 52 0 70 -2 17 -4 1 -4 -38z"/>
<path d="M1643 1930 c0 -41 2 -58 4 -37 2 20 2 54 0 75 -2 20 -4 3 -4 -38z"/>
<path d="M183 1930 c0 -36 2 -50 4 -32 2 17 2 47 0 65 -2 17 -4 3 -4 -33z"/>
<path d="M2743 1925 c0 -33 2 -45 4 -27 2 18 2 45 0 60 -2 15 -4 0 -4 -33z"/>
<path d="M1093 1750 c0 -41 2 -58 4 -37 2 20 2 54 0 75 -2 20 -4 3 -4 -38z"/>
<path d="M183 1755 c0 -33 2 -45 4 -27 2 18 2 45 0 60 -2 15 -4 0 -4 -33z"/>
<path d="M733 1745 c0 -38 2 -53 4 -32 2 20 2 52 0 70 -2 17 -4 1 -4 -38z"/>
<path d="M360 1287 l0 -357 -182 0 c-100 0 -179 -2 -176 -5 3 -3 85 -6 182 -6
l176 0 0 -446 c0 -245 2 -444 5 -441 3 3 5 204 5 447 l0 442 185 -3 c102 -2
185 0 185 5 0 4 -83 7 -185 7 l-185 0 0 351 c1 194 -2 354 -5 357 -3 3 -5
-155 -5 -351z"/>
<path d="M1640 1550 c0 -51 3 -90 6 -87 7 7 5 169 -2 176 -2 2 -4 -38 -4 -89z"/>
<path d="M2190 1550 c0 -51 3 -90 6 -87 7 7 5 169 -2 176 -2 2 -4 -38 -4 -89z"/>
<path d="M913 1565 c0 -38 2 -53 4 -32 2 20 2 52 0 70 -2 17 -4 1 -4 -38z"/>
<path d="M2743 1565 c0 -38 2 -53 4 -32 2 20 2 52 0 70 -2 17 -4 1 -4 -38z"/>
<path d="M1018 1537 l-48 -43 0 -82 0 -82 80 0 80 0 0 -270 0 -270 89 0 88 0
47 41 46 41 0 149 0 149 25 0 25 0 0 -190 0 -190 86 0 86 0 50 42 50 42 -4 68
-4 68 28 0 28 0 0 -110 0 -110 83 0 c81 0 85 1 131 37 l47 36 -3 120 -3 120
-77 -2 -78 -2 0 80 0 81 -155 0 -155 0 0 80 0 80 -160 0 -160 0 0 80 0 80 -87
0 -88 -1 -47 -42z m149 -7 c-31 -27 -42 -30 -98 -30 l-64 1 35 29 c31 26 43
29 98 30 l63 0 -34 -30z m23 -138 c-16 -13 -30 -28 -30 -34 0 -6 15 1 34 16
29 22 45 26 97 26 l63 0 -29 -30 c-26 -27 -35 -30 -91 -30 -92 0 -94 1 -94 79
0 64 1 67 37 98 l38 31 3 -66 c3 -63 2 -67 -28 -90z m-71 28 c1 -34 -3 -50
-11 -51 -86 -9 -100 -1 -97 50 4 50 5 51 58 51 l48 0 2 -50z m366 -50 c-27
-28 -34 -30 -99 -30 l-71 1 35 29 c31 26 43 29 99 30 l65 0 -29 -30z m16 -144
l-41 -41 0 72 c0 71 1 72 38 103 l37 30 3 -62 c3 -60 2 -62 -37 -102z m-113
86 l42 -2 0 -49 c0 -55 -7 -61 -74 -61 -68 0 -72 -10 -79 -199 -5 -117 -10
-167 -19 -172 -19 -12 -69 -4 -79 12 -5 8 -9 116 -9 241 l0 227 28 3 c28 3
117 3 190 0z m261 -98 c-31 -32 -36 -34 -103 -34 l-71 1 38 32 c33 28 44 32
103 34 l66 1 -33 -34z m181 27 c0 -3 -16 -18 -34 -33 -30 -24 -44 -28 -98 -28
l-63 1 36 32 c33 28 44 32 98 33 34 0 61 -2 61 -5z m24 -76 c-1 -61 -4 -69
-34 -100 -42 -43 -35 -45 15 -5 32 26 46 30 96 30 33 0 59 -2 59 -5 0 -3 -15
-19 -32 -35 -30 -26 -40 -29 -100 -30 -40 0 -70 5 -74 12 -4 6 -6 40 -5 75 2
58 6 67 34 93 18 16 34 30 37 30 3 0 5 -29 4 -65z m-474 -137 l0 -142 -32 -33
c-18 -18 -36 -33 -40 -33 -4 0 -8 79 -8 175 l0 175 40 0 40 0 0 -142z m358
118 c7 -4 12 -27 12 -51 0 -48 -9 -55 -71 -55 -29 0 -47 -7 -64 -25 -22 -21
-25 -33 -25 -98 0 -81 -9 -96 -50 -92 -14 2 -31 4 -37 4 -10 1 -13 38 -13 150
0 82 2 156 6 164 4 11 28 14 117 12 62 0 118 -5 125 -9z m240 -299 l-33 -28
-3 97 -3 97 33 27 33 28 3 -97 3 -96 -33 -28z m-278 100 c0 -60 -2 -65 -40
-102 l-40 -39 0 102 0 102 40 0 40 0 0 -63z m203 30 c3 -10 3 -101 -2 -133 -1
-13 -66 -24 -82 -14 -11 8 -22 115 -14 142 9 27 88 31 98 5z"/>
<path d="M58 1473 c17 -2 47 -2 65 0 17 2 3 4 -33 4 -36 0 -50 -2 -32 -4z"/>
<path d="M237 1473 c18 -2 50 -2 70 0 21 2 7 4 -32 4 -38 0 -55 -2 -38 -4z"/>
<path d="M448 1473 c18 -2 45 -2 60 0 15 2 0 4 -33 4 -33 0 -45 -2 -27 -4z"/>
<path d="M608 1473 c17 -2 47 -2 65 0 17 2 3 4 -33 4 -36 0 -50 -2 -32 -4z"/>
<path d="M788 1473 c17 -2 47 -2 65 0 17 2 3 4 -33 4 -36 0 -50 -2 -32 -4z"/>
<path d="M1708 1473 c17 -2 47 -2 65 0 17 2 3 4 -33 4 -36 0 -50 -2 -32 -4z"/>
<path d="M1888 1473 c17 -2 47 -2 65 0 17 2 3 4 -33 4 -36 0 -50 -2 -32 -4z"/>
<path d="M2068 1473 c17 -2 47 -2 65 0 17 2 3 4 -33 4 -36 0 -50 -2 -32 -4z"/>
<path d="M2258 1473 c17 -2 47 -2 65 0 17 2 3 4 -33 4 -36 0 -50 -2 -32 -4z"/>
<path d="M2437 1473 c18 -2 50 -2 70 0 21 2 7 4 -32 4 -38 0 -55 -2 -38 -4z"/>
<path d="M2617 1473 c18 -2 50 -2 70 0 21 2 7 4 -32 4 -38 0 -55 -2 -38 -4z"/>
<path d="M2797 1473 c18 -2 50 -2 70 0 21 2 7 4 -32 4 -38 0 -55 -2 -38 -4z"/>
<path d="M1643 1385 c0 -38 2 -53 4 -32 2 20 2 52 0 70 -2 17 -4 1 -4 -38z"/>
<path d="M2193 1380 c0 -41 2 -58 4 -37 2 20 2 54 0 75 -2 20 -4 3 -4 -38z"/>
<path d="M2743 1385 c0 -38 2 -53 4 -32 2 20 2 52 0 70 -2 17 -4 1 -4 -38z"/>
<path d="M183 1380 c0 -36 2 -50 4 -32 2 17 2 47 0 65 -2 17 -4 3 -4 -33z"/>
<path d="M733 1380 c0 -36 2 -50 4 -32 2 17 2 47 0 65 -2 17 -4 3 -4 -33z"/>
<path d="M2194 1215 c0 -49 1 -71 3 -48 2 23 2 64 0 90 -2 26 -3 8 -3 -42z"/>
<path d="M2743 1205 c0 -38 2 -53 4 -32 2 20 2 52 0 70 -2 17 -4 1 -4 -38z"/>
<path d="M733 1200 c0 -36 2 -50 4 -32 2 17 2 47 0 65 -2 17 -4 3 -4 -33z"/>
<path d="M913 1200 c0 -36 2 -50 4 -32 2 17 2 47 0 65 -2 17 -4 3 -4 -33z"/>
<path d="M2192 1028 l-2 -98 -57 0 c-31 0 -54 -2 -51 -5 7 -7 819 -7 826 0 3
3 -155 5 -351 5 l-356 0 -4 98 -3 97 -2 -97z"/>
<path d="M2628 1103 c18 -2 45 -2 60 0 15 2 0 4 -33 4 -33 0 -45 -2 -27 -4z"/>
<path d="M183 1015 c0 -38 2 -53 4 -32 2 20 2 52 0 70 -2 17 -4 1 -4 -38z"/>
<path d="M913 1015 c0 -38 2 -53 4 -32 2 20 2 52 0 70 -2 17 -4 1 -4 -38z"/>
<path d="M752 925 c7 -7 309 -7 316 0 3 3 -68 5 -158 5 -90 0 -161 -2 -158 -5z"/>
<path d="M733 835 c0 -38 2 -53 4 -32 2 20 2 52 0 70 -2 17 -4 1 -4 -38z"/>
<path d="M2193 830 c0 -41 2 -58 4 -37 2 20 2 54 0 75 -2 20 -4 3 -4 -38z"/>
<path d="M183 830 c0 -36 2 -50 4 -32 2 17 2 47 0 65 -2 17 -4 3 -4 -33z"/>
<path d="M913 830 c0 -36 2 -50 4 -32 2 17 2 47 0 65 -2 17 -4 3 -4 -33z"/>
<path d="M2743 830 c0 -36 2 -50 4 -32 2 17 2 47 0 65 -2 17 -4 3 -4 -33z"/>
<path d="M1460 653 c-2 -297 1 -617 5 -622 3 -2 5 158 5 357 0 199 -2 362 -5
362 -3 0 -5 -44 -5 -97z"/>
<path d="M1093 650 c0 -41 2 -58 4 -37 2 20 2 54 0 75 -2 20 -4 3 -4 -38z"/>
<path d="M1641 638 c0 -49 2 -88 7 -88 4 0 6 28 4 62 -5 107 -9 117 -11 26z"/>
<path d="M2193 650 c0 -41 2 -58 4 -37 2 20 2 54 0 75 -2 20 -4 3 -4 -38z"/>
<path d="M183 655 c0 -33 2 -45 4 -27 2 18 2 45 0 60 -2 15 -4 0 -4 -33z"/>
<path d="M913 650 c0 -36 2 -50 4 -32 2 17 2 47 0 65 -2 17 -4 3 -4 -33z"/>
<path d="M910 563 c-5 -28 0 -192 5 -190 4 1 7 41 6 89 l-2 87 78 3 78 3 -83
5 c-45 3 -82 4 -82 3z"/>
<path d="M1090 395 c0 -98 2 -176 5 -173 7 7 8 338 1 345 -3 4 -6 -74 -6 -172z"/>
<path d="M68 553 c17 -2 47 -2 65 0 17 2 3 4 -33 4 -36 0 -50 -2 -32 -4z"/>
<path d="M233 553 c20 -2 54 -2 75 0 20 2 3 4 -38 4 -41 0 -58 -2 -37 -4z"/>
<path d="M417 553 c18 -2 50 -2 70 0 21 2 7 4 -32 4 -38 0 -55 -2 -38 -4z"/>
<path d="M603 553 c20 -2 54 -2 75 0 20 2 3 4 -38 4 -41 0 -58 -2 -37 -4z"/>
<path d="M787 553 c18 -2 50 -2 70 0 21 2 7 4 -32 4 -38 0 -55 -2 -38 -4z"/>
<path d="M1153 553 c20 -2 54 -2 75 0 20 2 3 4 -38 4 -41 0 -58 -2 -37 -4z"/>
<path d="M1337 553 c18 -2 50 -2 70 0 21 2 7 4 -32 4 -38 0 -55 -2 -38 -4z"/>
<path d="M1517 553 c18 -2 50 -2 70 0 21 2 7 4 -32 4 -38 0 -55 -2 -38 -4z"/>
<path d="M1697 553 c18 -2 50 -2 70 0 21 2 7 4 -32 4 -38 0 -55 -2 -38 -4z"/>
<path d="M1883 553 c20 -2 54 -2 75 0 20 2 3 4 -38 4 -41 0 -58 -2 -37 -4z"/>
<path d="M2063 553 c20 -2 54 -2 75 0 20 2 3 4 -38 4 -41 0 -58 -2 -37 -4z"/>
<path d="M2247 553 c18 -2 50 -2 70 0 21 2 7 4 -32 4 -38 0 -55 -2 -38 -4z"/>
<path d="M2433 553 c20 -2 54 -2 75 0 20 2 3 4 -38 4 -41 0 -58 -2 -37 -4z"/>
<path d="M2798 553 c23 -2 59 -2 80 0 20 2 1 4 -43 4 -44 0 -61 -2 -37 -4z"/>
<path d="M1640 375 c0 -93 2 -166 5 -163 3 3 6 76 6 163 0 87 -3 160 -6 163
-3 3 -5 -70 -5 -163z"/>
<path d="M2190 375 c0 -93 2 -166 5 -163 3 3 6 76 6 163 0 87 -3 160 -6 163
-3 3 -5 -70 -5 -163z"/>
<path d="M183 465 c0 -38 2 -53 4 -32 2 20 2 52 0 70 -2 17 -4 1 -4 -38z"/>
<path d="M733 465 c0 -38 2 -53 4 -32 2 20 2 52 0 70 -2 17 -4 1 -4 -38z"/>
<path d="M57 373 c18 -2 50 -2 70 0 21 2 7 4 -32 4 -38 0 -55 -2 -38 -4z"/>
<path d="M178 323 c5 -101 9 -111 11 -25 0 45 -2 82 -6 82 -5 0 -7 -26 -5 -57z"/>
<path d="M243 373 c20 -2 54 -2 75 0 20 2 3 4 -38 4 -41 0 -58 -2 -37 -4z"/>
<path d="M417 373 c18 -2 50 -2 70 0 21 2 7 4 -32 4 -38 0 -55 -2 -38 -4z"/>
<path d="M608 373 c17 -2 47 -2 65 0 17 2 3 4 -33 4 -36 0 -50 -2 -32 -4z"/>
<path d="M787 373 c18 -2 50 -2 70 0 21 2 7 4 -32 4 -38 0 -55 -2 -38 -4z"/>
<path d="M967 373 c18 -2 50 -2 70 0 21 2 7 4 -32 4 -38 0 -55 -2 -38 -4z"/>
<path d="M1157 373 c18 -2 50 -2 70 0 21 2 7 4 -32 4 -38 0 -55 -2 -38 -4z"/>
<path d="M1337 373 c18 -2 50 -2 70 0 21 2 7 4 -32 4 -38 0 -55 -2 -38 -4z"/>
<path d="M1517 373 c18 -2 50 -2 70 0 21 2 7 4 -32 4 -38 0 -55 -2 -38 -4z"/>
<path d="M1697 373 c18 -2 50 -2 70 0 21 2 7 4 -32 4 -38 0 -55 -2 -38 -4z"/>
<path d="M1888 373 c17 -2 47 -2 65 0 17 2 3 4 -33 4 -36 0 -50 -2 -32 -4z"/>
<path d="M2067 373 c18 -2 50 -2 70 0 21 2 7 4 -32 4 -38 0 -55 -2 -38 -4z"/>
<path d="M2247 373 c18 -2 50 -2 70 0 21 2 7 4 -32 4 -38 0 -55 -2 -38 -4z"/>
<path d="M2438 373 c17 -2 47 -2 65 0 17 2 3 4 -33 4 -36 0 -50 -2 -32 -4z"/>
<path d="M2617 373 c18 -2 50 -2 70 0 21 2 7 4 -32 4 -38 0 -55 -2 -38 -4z"/>
<path d="M2797 373 c18 -2 50 -2 70 0 21 2 7 4 -32 4 -38 0 -55 -2 -38 -4z"/>
<path d="M733 285 c0 -38 2 -53 4 -32 2 20 2 52 0 70 -2 17 -4 1 -4 -38z"/>
<path d="M913 285 c0 -38 2 -53 4 -32 2 20 2 52 0 70 -2 17 -4 1 -4 -38z"/>
<path d="M1093 100 c0 -41 2 -58 4 -38 2 21 2 55 0 76 -2 20 -4 3 -4 -38z"/>
<path d="M1643 110 c0 -36 2 -50 4 -32 2 17 2 47 0 65 -2 17 -4 3 -4 -33z"/>
<path d="M2193 100 c0 -41 2 -58 4 -38 2 21 2 55 0 76 -2 20 -4 3 -4 -38z"/>
<path d="M183 105 c0 -33 2 -45 4 -27 2 18 2 45 0 60 -2 15 -4 0 -4 -33z"/>
<path d="M733 105 c0 -33 2 -45 4 -27 2 18 2 45 0 60 -2 15 -4 0 -4 -33z"/>
<path d="M913 105 c0 -33 2 -45 4 -27 2 18 2 45 0 60 -2 15 -4 0 -4 -33z"/>
<path d="M2743 105 c0 -33 2 -45 4 -27 2 18 2 45 0 60 -2 15 -4 0 -4 -33z"/>
</g>
</svg>
